<?xml version="1.0" encoding="iso-8859-1"?>
<!-- Generator: Adobe Illustrator 19.0.0, SVG Export Plug-In . SVG Version: 6.00 Build 0)  -->
<svg version="1.1" id="Capa_1" xmlns="http://www.w3.org/2000/svg" xmlns:xlink="http://www.w3.org/1999/xlink" x="0px" y="0px"
	 viewBox="0 0 511.999 511.999" style="enable-background:new 0 0 511.999 511.999;" xml:space="preserve">
<g>
	<g>
		<path d="M506.827,190.017c-17.9-55.093-71.314-85.254-126.305-67.412c-7.266,2.358-14.634,5.625-21.914,9.683
			c1.597-8.174,2.432-19.642,2.432-27.288c0-57.891-47.109-105-105-105s-99.085,47.109-99.085,105
			c0,7.646,0.835,19.114,2.432,27.288c-7.28-4.058-14.634-7.324-21.899-9.683c-55.108-17.842-114.42,12.334-132.32,67.426
			c-17.911,55.189,12.215,114.366,67.412,132.29c7.281,2.358,15.162,4.043,23.423,5.054c-6.094,5.669-11.484,11.66-15.967,17.842
			c-34.11,46.925-23.751,112.548,23.218,146.66c47.234,34.388,106.86,23.438,140.745-23.218c4.497-6.182,8.54-13.154,12.041-20.713
			c3.501,7.559,7.544,14.531,12.041,20.713c34.105,46.959,93.716,57.346,140.66,23.218c46.94-34.091,57.35-99.705,23.218-146.66
			c-4.482-6.182-9.873-12.173-15.967-17.842c8.262-1.011,16.143-2.695,23.408-5.054C494.487,304.443,524.778,245.36,506.827,190.017
			z M389.062,246.003l-58.865,19.125c2.649,23.56-4.815,43.214-19.001,58.727l36.323,49.999
			c11.806,16.238-12.82,33.421-24.258,17.637l-36.262-49.916c-9.467,4.323-19.893,6.879-30.959,6.879s-21.493-2.556-30.959-6.879
			l-36.262,49.916c-11.568,15.964-36.053-1.414-24.258-17.637l36.323-49.999c-12.202-13.345-19.843-30.938-19.843-50.402
			c0-2.851,0.531-5.557,0.842-8.326l-58.865-19.125c-18.953-6.165-9.457-34.646,9.258-28.535l58.852,19.122
			c10.541-18.481,28.231-32.239,49.713-36.617v-61.518c0-19.773,30.2-19.854,30.2,0v61.518
			c21.482,4.378,39.371,18.137,49.913,36.617l58.852-19.122C398.446,211.335,408.032,239.832,389.062,246.003z"/>
	</g>
</g>
<g>
	<g>
		<path d="M256.04,228.454c-24.814,0-45,20.186-45,45s20.186,45,45,45c24.814,0,45-20.186,45-45
			C301.04,248.64,280.854,228.454,256.04,228.454z"/>
	</g>
</g>
<g>
</g>
<g>
</g>
<g>
</g>
<g>
</g>
<g>
</g>
<g>
</g>
<g>
</g>
<g>
</g>
<g>
</g>
<g>
</g>
<g>
</g>
<g>
</g>
<g>
</g>
<g>
</g>
<g>
</g>
</svg>
